<?xml version="1.0" encoding="utf-8"?>
<!-- Generator: Adobe Illustrator 25.0.0, SVG Export Plug-In . SVG Version: 6.00 Build 0)  -->
<svg version="1.1" id="Слой_1" xmlns="http://www.w3.org/2000/svg" xmlns:xlink="http://www.w3.org/1999/xlink" x="0px" y="0px"
	 viewBox="0 0 368.5 368.5" style="enable-background:new 0 0 368.5 368.5;" xml:space="preserve">
<style type="text/css">
	.st0{fill:url(#SVGID_1_);}
	.st1{fill:none;}
	.st2{fill:#FFFFFF;}
	.st3{fill:none;stroke:#FFFFFF;stroke-width:5;stroke-miterlimit:10;}
	.st4{fill:none;stroke:#FFFFFF;stroke-width:3;stroke-miterlimit:10;}
</style>
<radialGradient id="SVGID_1_" cx="184.252" cy="184.252" r="184.252" gradientUnits="userSpaceOnUse">
	<stop  offset="0" style="stop-color:#E6332A"/>
	<stop  offset="0" style="stop-color:#E6332A"/>
	<stop  offset="0" style="stop-color:#E43229"/>
	<stop  offset="0.6591" style="stop-color:#A21F18"/>
	<stop  offset="1" style="stop-color:#891812"/>
</radialGradient>
<circle class="st0" cx="184.25" cy="184.25" r="184.25"/>
<g>
	<circle class="st1" cx="184.25" cy="184.25" r="170.08"/>
	<path class="st2" d="M53.79,294.28l-5.27-7.4l4.84-10.81l-1.18-1.65l-8.32,5.92l-4.58-6.43l20.99-14.95l4.58,6.43l-8.43,6
		c0.66,0.9,1.27,1.48,1.85,1.74c0.57,0.27,1.6,0.27,3.07,0.02c0.5-0.09,1.04-0.2,1.63-0.33c0.59-0.12,1.11-0.23,1.58-0.32
		c1.85-0.34,3.36-0.21,4.55,0.37c1.19,0.58,2.26,1.56,3.23,2.92c0.34,0.48,0.66,0.94,0.95,1.37c0.29,0.44,0.5,0.75,0.64,0.93
		l-5.61,3.99l-0.89-1.25c-0.28-0.39-0.61-0.69-0.99-0.89c-0.38-0.2-0.77-0.33-1.17-0.4c-0.42-0.06-0.79-0.05-1.12,0.01
		c-0.33,0.06-0.66,0.12-0.97,0.18c-0.87,0.2-1.5,0.33-1.88,0.4c-0.38,0.07-0.83,0.03-1.35-0.12L53.79,294.28z"/>
	<path class="st2" d="M85.96,307.19c-2.83,2.98-5.86,4.69-9.09,5.1c-3.23,0.42-5.93-0.41-8.11-2.48c-0.92-0.87-1.61-1.73-2.09-2.58
		s-0.89-1.86-1.23-3.03L58.05,312l-5.72-5.43l24.25-25.55l5.72,5.43l-1.85,1.95c1.53,0.06,2.95,0.28,4.26,0.66
		c1.3,0.37,2.53,1.1,3.67,2.19c2.13,2.02,2.96,4.44,2.49,7.27C90.41,301.33,88.77,304.23,85.96,307.19z M79.99,301.75
		c1.73-1.82,2.71-3.4,2.93-4.75s-0.24-2.57-1.41-3.68c-0.51-0.49-1.1-0.89-1.77-1.2s-1.4-0.54-2.21-0.67l-8.93,9.4
		c0.18,0.42,0.42,0.84,0.74,1.24c0.31,0.4,0.72,0.84,1.22,1.32c1.4,1.32,2.87,1.84,4.43,1.56
		C76.56,304.69,78.22,303.62,79.99,301.75z"/>
	<path class="st2" d="M97.14,327.2c-0.7,0.1-1.33,0.18-1.89,0.26c-0.56,0.08-1.24,0.08-2.05,0c-0.79-0.08-1.51-0.23-2.17-0.43
		c-0.66-0.2-1.5-0.63-2.52-1.28c-1.89-1.2-3.05-2.85-3.47-4.93c-0.43-2.09-0.02-4.11,1.23-6.07c1.03-1.61,2.17-2.71,3.44-3.3
		c1.27-0.59,2.68-0.8,4.24-0.62c1.58,0.17,3.28,0.68,5.11,1.51s3.74,1.8,5.75,2.9l0.07-0.12c0.76-1.2,0.86-2.31,0.28-3.32
		c-0.58-1.01-1.73-2.07-3.47-3.18c-0.79-0.5-1.8-0.94-3.04-1.32c-1.24-0.38-2.5-0.66-3.79-0.85l-0.57-0.36l3.34-5.25
		c0.78,0.23,1.99,0.68,3.63,1.35c1.64,0.67,3.21,1.48,4.7,2.44c3.68,2.34,5.96,4.67,6.85,6.99s0.52,4.75-1.11,7.31l-9.42,14.79
		l-6.62-4.22L97.14,327.2z M99.29,323.84l2.88-4.53c-1.2-0.6-2.18-1.08-2.93-1.44c-0.75-0.36-1.54-0.63-2.37-0.81
		c-0.71-0.17-1.37-0.14-1.96,0.07c-0.59,0.21-1.11,0.67-1.55,1.37c-0.65,1.02-0.83,1.89-0.53,2.61c0.3,0.72,0.97,1.42,2.02,2.09
		c0.58,0.37,1.27,0.62,2.05,0.73S98.48,324.01,99.29,323.84z"/>
	<path class="st2" d="M122.55,343.56c-1.93-0.79-3.6-1.77-5.01-2.92c-1.4-1.15-2.48-2.49-3.24-4.01c-0.74-1.51-1.12-3.19-1.14-5.02
		c-0.01-1.83,0.42-3.81,1.29-5.93c0.93-2.28,2.08-4.07,3.45-5.38s2.86-2.23,4.5-2.77c1.57-0.51,3.25-0.68,5.02-0.51
		c1.77,0.17,3.52,0.61,5.23,1.31c1.29,0.53,2.52,1.21,3.69,2.05c1.17,0.83,2.27,1.85,3.31,3.05l-2.61,6.37l-0.94-0.38
		c-0.18-0.4-0.41-0.86-0.69-1.38c-0.29-0.51-0.62-1.01-1-1.5c-0.41-0.51-0.9-1.01-1.49-1.49s-1.29-0.89-2.11-1.22
		c-1.86-0.76-3.58-0.69-5.14,0.21c-1.57,0.9-2.81,2.48-3.72,4.71c-0.98,2.39-1.17,4.4-0.56,6.02c0.61,1.62,1.82,2.8,3.63,3.55
		c0.92,0.38,1.77,0.6,2.55,0.67s1.49,0.06,2.11-0.03c0.61-0.1,1.15-0.23,1.63-0.41c0.48-0.18,0.9-0.34,1.25-0.49l0.94,0.38
		l-2.61,6.37c-0.49,0.01-1.06,0.03-1.71,0.04c-0.65,0.02-1.29-0.02-1.92-0.09c-0.79-0.09-1.52-0.21-2.18-0.36
		C124.4,344.26,123.56,343.98,122.55,343.56z"/>
	<path class="st2" d="M161.64,353.27l-7.73-1.59l2.22-10.81l-8-1.64l-2.22,10.81l-7.73-1.59l5.18-25.25l7.73,1.58l-1.79,8.75l8,1.64
		l1.79-8.75l7.73,1.59L161.64,353.27z"/>
	<path class="st2" d="M197.16,341.67c-0.07,4.24-1.26,7.56-3.58,9.96c-2.32,2.4-5.56,3.57-9.72,3.5c-4.13-0.07-7.33-1.34-9.58-3.82
		c-2.25-2.48-3.34-5.83-3.28-10.07c0.07-4.28,1.27-7.62,3.6-10.01c2.33-2.39,5.56-3.55,9.7-3.48c4.15,0.07,7.35,1.34,9.59,3.82
		C196.14,334.05,197.23,337.42,197.16,341.67z M189.07,341.58c0.02-1.53-0.08-2.81-0.31-3.83c-0.23-1.02-0.56-1.84-0.99-2.46
		c-0.46-0.65-0.97-1.11-1.56-1.37c-0.58-0.26-1.25-0.4-2-0.41c-0.71-0.01-1.35,0.09-1.92,0.3c-0.57,0.21-1.11,0.63-1.6,1.25
		c-0.46,0.59-0.83,1.4-1.12,2.44c-0.29,1.04-0.44,2.34-0.47,3.92c-0.03,1.58,0.08,2.85,0.32,3.83c0.24,0.98,0.56,1.76,0.95,2.35
		c0.41,0.6,0.93,1.05,1.56,1.33s1.32,0.43,2.09,0.45c0.63,0.01,1.28-0.12,1.93-0.38c0.66-0.27,1.19-0.67,1.59-1.21
		c0.48-0.65,0.84-1.44,1.1-2.36C188.9,344.5,189.04,343.22,189.07,341.58z"/>
	<path class="st2" d="M229.85,348.76l-8.93,1.69l-7.79-8.92l-1.99,0.38l1.89,10.04l-7.76,1.46l-4.78-25.32l7.76-1.46l1.92,10.17
		c1.09-0.22,1.88-0.54,2.36-0.95c0.48-0.41,0.91-1.34,1.3-2.78c0.12-0.49,0.25-1.03,0.38-1.61c0.13-0.59,0.26-1.11,0.37-1.56
		c0.47-1.82,1.22-3.14,2.25-3.97c1.03-0.83,2.36-1.4,4-1.71c0.58-0.11,1.12-0.2,1.64-0.29c0.52-0.08,0.89-0.15,1.11-0.19l1.28,6.77
		l-1.51,0.28c-0.47,0.09-0.88,0.26-1.22,0.52c-0.34,0.26-0.63,0.56-0.85,0.9c-0.22,0.35-0.38,0.69-0.46,1.02s-0.17,0.65-0.24,0.96
		c-0.19,0.88-0.33,1.5-0.43,1.88c-0.1,0.38-0.32,0.77-0.67,1.18L229.85,348.76z"/>
	<path class="st2" d="M248.79,338.74c-0.33,0.63-0.63,1.19-0.9,1.69c-0.26,0.5-0.66,1.05-1.2,1.66c-0.53,0.59-1.07,1.09-1.62,1.51
		c-0.55,0.42-1.39,0.85-2.51,1.29c-2.08,0.83-4.09,0.8-6.03-0.08s-3.34-2.4-4.19-4.56c-0.7-1.78-0.92-3.35-0.66-4.73
		c0.26-1.37,0.93-2.64,1.99-3.8c1.07-1.18,2.47-2.26,4.22-3.25c1.74-0.99,3.65-1.97,5.72-2.96l-0.05-0.13
		c-0.52-1.32-1.36-2.05-2.52-2.17c-1.16-0.13-2.69,0.19-4.61,0.95c-0.87,0.34-1.82,0.9-2.85,1.68c-1.03,0.78-2,1.64-2.91,2.57
		l-0.63,0.25l-2.29-5.78c0.64-0.5,1.72-1.22,3.22-2.15c1.5-0.93,3.08-1.73,4.73-2.38c4.05-1.61,7.28-2.09,9.67-1.45
		s4.15,2.37,5.27,5.18l6.46,16.3l-7.3,2.89L248.79,338.74z M247.32,335.02l-1.98-4.99c-1.19,0.62-2.16,1.13-2.89,1.53
		s-1.42,0.88-2.05,1.44c-0.55,0.48-0.92,1.03-1.09,1.63c-0.17,0.6-0.11,1.29,0.2,2.06c0.45,1.12,1.05,1.78,1.81,1.96
		c0.76,0.18,1.72,0.05,2.88-0.41c0.64-0.25,1.24-0.66,1.79-1.23C246.54,336.44,246.99,335.78,247.32,335.02z"/>
	<path class="st2" d="M290.87,317.55l-6.44,4.32l-9.01-13.44l1.71,11.78l-2.77,1.86l-10.25-6.06l9.01,13.44l-6.25,4.19l-14.36-21.4
		l7.14-4.79l11.52,6.65l-1.78-13.18l7.13-4.79L290.87,317.55z"/>
	<path class="st2" d="M308.07,301.9c-1.47,1.49-3,2.66-4.6,3.52c-1.6,0.86-3.25,1.35-4.94,1.48c-1.68,0.11-3.37-0.17-5.07-0.86
		c-1.7-0.68-3.37-1.83-5-3.45c-1.75-1.73-2.98-3.48-3.67-5.24c-0.69-1.76-0.97-3.5-0.85-5.21c0.13-1.65,0.6-3.26,1.44-4.84
		c0.83-1.57,1.9-3.02,3.2-4.33c0.98-1,2.08-1.87,3.3-2.64c1.22-0.76,2.58-1.4,4.08-1.9l4.9,4.84l-0.71,0.72
		c-0.44,0.01-0.95,0.05-1.54,0.12c-0.58,0.07-1.17,0.19-1.77,0.36c-0.63,0.18-1.28,0.45-1.94,0.81c-0.67,0.36-1.31,0.85-1.93,1.48
		c-1.42,1.43-2,3.05-1.76,4.84c0.24,1.79,1.22,3.54,2.94,5.23c1.84,1.82,3.63,2.75,5.36,2.8c1.73,0.05,3.29-0.62,4.66-2.01
		c0.7-0.71,1.23-1.41,1.59-2.1c0.36-0.7,0.62-1.35,0.77-1.96c0.14-0.6,0.22-1.15,0.24-1.66c0.02-0.51,0.03-0.96,0.02-1.34l0.71-0.72
		l4.9,4.84c-0.17,0.46-0.38,0.99-0.61,1.6c-0.23,0.61-0.5,1.19-0.82,1.74c-0.39,0.7-0.77,1.32-1.16,1.88
		C309.42,300.45,308.84,301.12,308.07,301.9z"/>
	<path class="st2" d="M332.52,268.83l-5.15,7.49l-11.81-0.84l-1.15,1.67l8.42,5.78l-4.47,6.5l-21.24-14.6l4.47-6.5l8.53,5.86
		c0.62-0.92,0.95-1.7,1-2.33c0.05-0.63-0.29-1.59-1.04-2.89c-0.26-0.43-0.55-0.91-0.87-1.42c-0.32-0.51-0.6-0.97-0.84-1.37
		c-0.95-1.62-1.35-3.09-1.21-4.4c0.14-1.32,0.69-2.66,1.63-4.04c0.33-0.48,0.65-0.94,0.96-1.36c0.31-0.42,0.53-0.73,0.66-0.92
		l5.67,3.9l-0.87,1.26c-0.27,0.4-0.44,0.81-0.5,1.23c-0.06,0.42-0.05,0.84,0.03,1.24c0.09,0.41,0.22,0.76,0.39,1.05
		c0.17,0.29,0.34,0.57,0.5,0.85c0.48,0.75,0.83,1.3,1.02,1.63c0.2,0.34,0.31,0.77,0.35,1.31L332.52,268.83z"/>
</g>
<g>
	<circle class="st1" cx="184.25" cy="184.25" r="141.73"/>
	<path class="st2" d="M41.72,178.16l0.71,9.94l-10.41,7.32l11.35,5.91l0.68,9.48l-17.96-9.83L9.93,212.8l-0.71-9.91l9.84-6.87
		l-10.73-5.56l-0.68-9.5L25,190.47L41.72,178.16z"/>
	<path class="st2" d="M46.75,145.65l-1.55,10.12l-15.02,6.97l-0.33,2.13l13.63,2.08l-1.3,8.48l-33.78-5.16l1.3-8.48l13.77,2.1
		c0.14-1.34,0-2.38-0.43-3.12s-1.47-1.7-3.14-2.88c-0.49-0.34-1.07-0.73-1.75-1.18c-0.67-0.45-1.26-0.85-1.77-1.19
		c-1.89-1.29-3.16-2.72-3.82-4.26c-0.65-1.55-0.8-3.48-0.45-5.79c0.12-0.76,0.22-1.38,0.32-1.88s0.17-0.88,0.21-1.15l7.24,1.11
		l-0.3,1.95c-0.15,0.97,0.02,1.86,0.51,2.67c0.49,0.81,1.57,1.72,3.24,2.74c1.33,0.81,2.32,1.53,2.98,2.16
		c0.65,0.63,1.07,1.2,1.26,1.69L46.75,145.65z"/>
	<path class="st2" d="M66.45,103.56l-4.73,9.08l-16.46,1.74l-1,1.91l12.23,6.38l-3.97,7.61l-30.3-15.8l3.97-7.61l12.35,6.44
		c0.57-1.22,0.77-2.25,0.6-3.09c-0.17-0.84-0.85-2.08-2.04-3.74c-0.35-0.48-0.78-1.04-1.27-1.68c-0.49-0.64-0.92-1.21-1.29-1.69
		c-1.37-1.84-2.12-3.59-2.24-5.27c-0.12-1.67,0.36-3.55,1.45-5.63c0.35-0.68,0.66-1.24,0.91-1.67c0.25-0.44,0.44-0.78,0.57-1.02
		l6.49,3.38l-0.91,1.75c-0.45,0.87-0.58,1.76-0.38,2.69c0.2,0.92,0.93,2.14,2.18,3.63c1,1.19,1.71,2.2,2.12,3.01
		c0.41,0.81,0.63,1.48,0.65,2.01L66.45,103.56z"/>
	<path class="st2" d="M67.28,66.84c1.22,1.03,2.21,2.2,2.98,3.51c0.77,1.31,1.22,2.64,1.35,3.99c0.08,0.83,0.09,1.67,0.03,2.53
		c-0.06,0.86-0.23,1.72-0.5,2.59c-0.27,0.87-0.65,1.75-1.14,2.63c-0.48,0.88-1.12,1.79-1.91,2.73l-2.9,3.44l8.54,7.21l-5.53,6.56
		L42.07,79.98l8.55-10.14c1.27-1.51,2.51-2.69,3.7-3.55c1.2-0.86,2.47-1.49,3.81-1.87c1.48-0.43,3-0.45,4.55-0.07
		C64.24,64.73,65.77,65.56,67.28,66.84z M61.75,73.7c-0.74-0.62-1.52-0.98-2.35-1.08s-1.55,0.01-2.16,0.34
		c-0.79,0.39-1.45,0.86-1.97,1.39c-0.52,0.53-1.19,1.28-2.01,2.25l-0.78,0.93l7.82,6.6l0.38-0.46c0.52-0.62,1.01-1.21,1.46-1.77
		c0.45-0.56,0.82-1.07,1.09-1.54c0.24-0.4,0.44-0.87,0.6-1.4c0.16-0.53,0.23-1,0.19-1.38c-0.06-0.81-0.25-1.49-0.59-2.04
		C63.11,74.99,62.55,74.38,61.75,73.7z"/>
	<path class="st2" d="M85.31,81.48l-11.6-34.15l7.44-5.69l29.93,20.12l-7.02,5.37l-5.93-4.24l-8.53,6.53l2.54,6.84L85.31,81.48z
		 M92.87,59.11l-9.62-6.83l4.08,11.07L92.87,59.11z"/>
	<path class="st2" d="M127.45,55.06c-4.65,2.15-9,2.45-13.03,0.91c-4.04-1.55-7.23-4.87-9.59-9.96c-2.27-4.92-2.71-9.47-1.32-13.66
		c1.39-4.19,4.41-7.36,9.06-9.51c1.24-0.57,2.38-1.02,3.43-1.33c1.05-0.32,2.08-0.56,3.1-0.73c0.8-0.12,1.71-0.19,2.71-0.22
		c1-0.02,1.82-0.02,2.45,0l3.42,7.39l-0.79,0.37c-0.53-0.16-1.19-0.34-1.97-0.54c-0.78-0.2-1.64-0.36-2.57-0.47
		c-0.93-0.11-1.9-0.12-2.91-0.03c-1.01,0.09-1.99,0.35-2.94,0.79c-1.13,0.52-2.07,1.17-2.85,1.96c-0.77,0.79-1.38,1.81-1.82,3.08
		c-0.41,1.15-0.55,2.51-0.42,4.09c0.13,1.58,0.62,3.28,1.47,5.11c0.89,1.93,1.9,3.43,3.02,4.51s2.28,1.82,3.49,2.24
		c1.16,0.41,2.32,0.55,3.48,0.44c1.15-0.11,2.22-0.4,3.21-0.85c1.03-0.48,1.93-1.1,2.7-1.87c0.77-0.77,1.38-1.51,1.83-2.22
		c0.5-0.75,0.9-1.47,1.23-2.16c0.32-0.69,0.6-1.3,0.83-1.82l0.71-0.33l3.37,7.29c-0.45,0.53-0.97,1.13-1.56,1.82
		c-0.59,0.69-1.23,1.33-1.91,1.93c-0.84,0.74-1.64,1.38-2.42,1.93C130.06,53.76,128.93,54.38,127.45,55.06z"/>
	<path class="st2" d="M170.15,42.47l-8.41,1.7l-3-14.85l-11.45,2.31l3,14.85l-8.41,1.7L135.1,14.7l8.41-1.7l2.48,12.26l11.45-2.31
		l-2.48-12.26l8.41-1.7L170.15,42.47z"/>
	<path class="st2" d="M172.92,42.05l12.69-33.76l9.36,0.32l10.38,34.54l-8.83-0.3l-1.9-7.04l-10.73-0.36l-2.37,6.9L172.92,42.05z
		 M192.95,29.55l-3.1-11.38l-3.87,11.14L192.95,29.55z"/>
	<path class="st2" d="M233.79,50.75l-8.25-2.2l3.24-12.11l-3.13-0.84l-11.55,9.88l-9.84-2.63l13.5-11.05
		c-1.79-1.41-3.03-3.06-3.71-4.93s-0.68-4.06-0.02-6.56c0.45-1.69,1.22-3.06,2.3-4.11c1.08-1.06,2.31-1.83,3.67-2.32
		c1.19-0.43,2.55-0.61,4.08-0.56c1.53,0.05,3.23,0.33,5.09,0.83l13.44,3.59L233.79,50.75z M230.37,30.5l2.38-8.89l-2.66-0.71
		c-1.29-0.34-2.29-0.57-3-0.67s-1.46,0-2.25,0.31c-0.6,0.24-1.12,0.62-1.54,1.14c-0.43,0.53-0.74,1.15-0.93,1.88
		c-0.2,0.75-0.24,1.47-0.12,2.14c0.12,0.67,0.38,1.27,0.78,1.79c0.44,0.59,1.03,1.04,1.76,1.35c0.73,0.31,1.72,0.63,2.96,0.96
		L230.37,30.5z"/>
	<path class="st2" d="M279.88,58.13c0.28,0.97,0.34,1.99,0.19,3.05c-0.15,1.06-0.61,2.18-1.37,3.34c-1.88,2.85-4.43,4.35-7.68,4.51
		s-6.92-1.12-11.02-3.82c-1.87-1.23-3.54-2.56-5.01-4.01c-1.47-1.45-2.73-2.92-3.75-4.42l4.2-6.38l0.65,0.43
		c0.52,1.3,1.36,2.77,2.51,4.44c1.15,1.66,2.47,2.99,3.97,3.97c1.93,1.27,3.69,1.93,5.28,1.99c1.59,0.06,2.86-0.63,3.8-2.06
		c0.82-1.24,1-2.43,0.56-3.57c-0.44-1.14-1.74-2.42-3.9-3.84l-4.1-2.7l3.36-5.1l3.91,2.57c1.79,1.18,3.28,1.77,4.47,1.77
		c1.19,0,2.14-0.54,2.85-1.62c0.63-0.96,0.63-1.96,0-2.99s-1.7-2.05-3.22-3.06c-0.86-0.56-1.73-1.01-2.62-1.34
		c-0.89-0.33-1.8-0.6-2.71-0.82c-0.86-0.2-1.68-0.34-2.46-0.41c-0.78-0.08-1.38-0.14-1.79-0.19l-0.67-0.44l3.91-5.94
		c1.06,0.2,2.68,0.7,4.86,1.48c2.18,0.79,4.31,1.86,6.38,3.22c3.68,2.42,6.03,4.84,7.06,7.27c1.02,2.42,0.82,4.72-0.61,6.89
		c-1.07,1.62-2.49,2.69-4.27,3.21c-1.78,0.52-3.59,0.45-5.43-0.2l-0.19,0.29c0.52,0.49,1.07,1.15,1.63,1.98
		C279.24,56.46,279.64,57.29,279.88,58.13z"/>
	<path class="st2" d="M303.33,88.32c-1.21,1.19-2.5,2-3.87,2.44s-2.73,0.57-4.09,0.38c-1.62-0.21-3.12-0.72-4.5-1.52
		c-1.38-0.8-2.9-2.05-4.56-3.74l-9.57-9.77l24.42-23.91l8.44,8.63c1.75,1.79,3.02,3.22,3.78,4.28s1.33,2.2,1.68,3.44
		c0.39,1.33,0.4,2.6,0.03,3.81c-0.36,1.2-1.06,2.31-2.09,3.31c-1.19,1.17-2.54,1.91-4.06,2.22c-1.51,0.31-3,0.16-4.47-0.46
		l-0.13,0.13c1.16,1.82,1.7,3.66,1.61,5.53C305.87,84.95,304.99,86.7,303.33,88.32z M297.26,81.9c0.75-0.74,1.19-1.47,1.32-2.19
		c0.13-0.72,0-1.5-0.38-2.32c-0.22-0.51-0.64-1.1-1.26-1.77c-0.62-0.67-1.47-1.55-2.54-2.64l-1.11-1.13l-6.12,5.99l0.32,0.33
		c1.56,1.6,2.65,2.69,3.28,3.28c0.62,0.59,1.38,1.07,2.27,1.44c0.79,0.32,1.54,0.38,2.25,0.19
		C296.02,82.86,296.67,82.48,297.26,81.9z M305.68,70.64c0.39-0.39,0.7-0.88,0.92-1.49c0.22-0.61,0.21-1.22-0.02-1.83
		c-0.22-0.58-0.59-1.15-1.12-1.72c-0.52-0.57-1.32-1.4-2.39-2.49l-0.42-0.43l-5.17,5.06l0.75,0.77c1.03,1.05,1.76,1.77,2.19,2.17
		c0.43,0.4,0.97,0.72,1.62,0.97c0.71,0.27,1.36,0.3,1.95,0.09C304.58,71.53,305.14,71.17,305.68,70.64z"/>
	<path class="st2" d="M298.31,99.39l28.88-18.26l12.35,19.53l-5.51,3.48l-7.79-12.32l-5.06,3.2l7.17,11.35l-5.51,3.48l-7.17-11.35
		l-7.29,4.61l7.79,12.32l-5.51,3.48L298.31,99.39z"/>
	<path class="st2" d="M335.9,138.78c-0.35,0.95-0.89,1.81-1.64,2.58c-0.75,0.77-1.77,1.4-3.08,1.89c-3.19,1.2-6.15,0.91-8.86-0.88
		c-2.71-1.78-4.93-4.98-6.66-9.57c-0.79-2.09-1.35-4.16-1.69-6.19c-0.34-2.04-0.48-3.97-0.43-5.78l7.15-2.69l0.27,0.73
		c-0.34,1.35-0.54,3.04-0.59,5.06c-0.05,2.02,0.24,3.87,0.87,5.54c0.81,2.16,1.84,3.74,3.1,4.72c1.25,0.98,2.68,1.18,4.28,0.57
		c1.39-0.52,2.24-1.37,2.56-2.55s0.02-2.98-0.89-5.4l-1.73-4.6l5.71-2.15l1.65,4.38c0.75,2.01,1.61,3.36,2.57,4.06
		c0.96,0.7,2.05,0.83,3.26,0.37c1.07-0.4,1.66-1.21,1.76-2.42c0.1-1.21-0.17-2.66-0.81-4.37c-0.36-0.96-0.8-1.84-1.33-2.63
		c-0.53-0.79-1.09-1.55-1.71-2.26c-0.58-0.67-1.16-1.26-1.75-1.78c-0.59-0.52-1.03-0.92-1.33-1.2l-0.28-0.75l6.66-2.5
		c0.74,0.79,1.75,2.14,3.06,4.06s2.39,4.04,3.26,6.36c1.55,4.13,2.02,7.47,1.42,10.03c-0.6,2.56-2.12,4.3-4.55,5.21
		c-1.82,0.68-3.6,0.71-5.34,0.08s-3.17-1.75-4.28-3.36l-0.32,0.12c0.13,0.7,0.18,1.56,0.15,2.56
		C336.36,137.05,336.19,137.97,335.9,138.78z"/>
	<path class="st2" d="M319.22,183.63l-1.02-7.8l7.9-1.03l-2.48-18.93l-7.9,1.03l-1.02-7.8l14.27-1.87l0.3,2.28
		c3.52,1.16,7.7,1.89,12.57,2.2c4.86,0.3,10.03,0.1,15.51-0.62l3.13,23.89l-27.4,3.59l0.42,3.21L319.22,183.63z M331.95,170.05
		l20.93-2.74l-0.97-7.42c-4.13,0.25-8.05,0.18-11.75-0.2c-3.7-0.38-6.98-1.04-9.83-1.98L331.95,170.05z"/>
	<path class="st2" d="M326.9,182.83l32.81,14.99l-0.96,9.31l-35.17,7.98l0.91-8.79l7.16-1.41l1.1-10.68l-6.72-2.84L326.9,182.83z
		 M337.99,203.67l11.57-2.31l-10.85-4.63L337.99,203.67z"/>
</g>
<line id="Звезда_большая_1_" class="st3" x1="234.07" y1="205.87" x2="230.31" y2="209.72"/>
<polyline id="Звезда_большая_2_" class="st3" points="184.25,244.9 127.31,276.38 138.19,209.71 92.13,162.5 
	155.78,152.78 184.25,92.13 212.72,152.78 276.38,162.5 234.07,205.87 "/>
<g>
	<rect x="80.79" y="121.89" class="st1" width="70.87" height="28.35"/>
	<path class="st2" d="M95.64,141.31H82.59v-2.61c1.1-0.79,2.1-1.53,2.98-2.23c0.88-0.7,1.65-1.37,2.32-2
		c0.87-0.82,1.5-1.55,1.88-2.17s0.58-1.26,0.58-1.92c0-0.74-0.25-1.32-0.74-1.71s-1.18-0.6-2.06-0.6c-0.45,0-0.88,0.05-1.28,0.15
		c-0.4,0.1-0.81,0.23-1.22,0.39c-0.41,0.17-0.75,0.33-1.04,0.5c-0.29,0.17-0.5,0.3-0.64,0.39h-0.35V126
		c0.5-0.21,1.28-0.44,2.35-0.66s2.09-0.34,3.08-0.34c2.11,0,3.7,0.42,4.79,1.27c1.09,0.85,1.63,2.03,1.63,3.57
		c0,0.95-0.25,1.87-0.74,2.78c-0.49,0.91-1.31,1.88-2.46,2.92c-0.72,0.64-1.41,1.21-2.09,1.7c-0.68,0.5-1.17,0.85-1.47,1.06h7.53
		V141.31z"/>
	<path class="st2" d="M111.45,133.3c0,1.38-0.12,2.59-0.37,3.63c-0.25,1.04-0.64,1.91-1.18,2.6c-0.54,0.69-1.24,1.22-2.11,1.57
		s-1.93,0.53-3.18,0.53c-1.25,0-2.31-0.18-3.17-0.53s-1.57-0.89-2.12-1.6c-0.54-0.7-0.93-1.57-1.18-2.59
		c-0.25-1.03-0.37-2.23-0.37-3.6c0-1.42,0.12-2.63,0.36-3.63c0.24-1,0.65-1.87,1.21-2.59c0.56-0.71,1.27-1.24,2.15-1.58
		c0.87-0.35,1.92-0.52,3.13-0.52c1.28,0,2.35,0.18,3.2,0.54c0.85,0.36,1.56,0.9,2.11,1.62c0.54,0.7,0.93,1.57,1.17,2.6
		S111.45,131.96,111.45,133.3z M106.98,133.3c0-1.98-0.18-3.36-0.54-4.16c-0.36-0.8-0.97-1.2-1.83-1.2c-0.85,0-1.46,0.4-1.83,1.2
		c-0.37,0.8-0.55,2.19-0.55,4.18c0,1.95,0.18,3.33,0.55,4.14c0.37,0.81,0.97,1.22,1.83,1.22c0.85,0,1.46-0.41,1.82-1.22
		C106.8,136.65,106.98,135.26,106.98,133.3z"/>
	<path class="st2" d="M126.93,141.31H115.2v-2.79h3.75v-8.45h-3.75v-2.61c0.55,0,1.09-0.03,1.63-0.1c0.54-0.06,0.97-0.17,1.3-0.31
		c0.38-0.17,0.68-0.4,0.89-0.69c0.21-0.29,0.33-0.65,0.36-1.08h3.89v13.25h3.66V141.31z"/>
	<path class="st2" d="M142.98,141.31h-11.74v-2.79h3.75v-8.45h-3.75v-2.61c0.55,0,1.09-0.03,1.63-0.1c0.54-0.06,0.97-0.17,1.3-0.31
		c0.38-0.17,0.68-0.4,0.89-0.69c0.21-0.29,0.33-0.65,0.36-1.08h3.89v13.25h3.66V141.31z"/>
</g>
<g>
	<path class="st2" d="M239.72,141.11h-11.53v-2.61c0.98-0.79,1.85-1.53,2.63-2.23c0.78-0.7,1.46-1.37,2.05-2
		c0.77-0.82,1.32-1.55,1.67-2.17s0.52-1.26,0.52-1.92c0-0.74-0.22-1.32-0.65-1.71c-0.44-0.4-1.04-0.6-1.82-0.6
		c-0.4,0-0.78,0.05-1.13,0.15c-0.35,0.1-0.71,0.23-1.08,0.39c-0.36,0.17-0.66,0.33-0.92,0.5s-0.44,0.3-0.57,0.39h-0.31v-3.49
		c0.44-0.21,1.13-0.44,2.08-0.66s1.85-0.34,2.72-0.34c1.86,0,3.27,0.42,4.23,1.27c0.96,0.85,1.44,2.03,1.44,3.57
		c0,0.95-0.22,1.87-0.65,2.78c-0.44,0.91-1.16,1.88-2.17,2.92c-0.63,0.64-1.25,1.21-1.84,1.7c-0.6,0.5-1.03,0.85-1.3,1.06h6.65
		V141.11z"/>
	<path class="st2" d="M253.69,133.11c0,1.38-0.11,2.59-0.33,3.63c-0.22,1.04-0.57,1.91-1.04,2.6c-0.48,0.69-1.1,1.22-1.87,1.57
		c-0.77,0.35-1.7,0.53-2.81,0.53c-1.1,0-2.04-0.18-2.8-0.53c-0.77-0.35-1.39-0.89-1.88-1.6c-0.48-0.7-0.83-1.57-1.04-2.59
		c-0.22-1.03-0.33-2.23-0.33-3.6c0-1.42,0.11-2.63,0.32-3.63c0.21-1,0.57-1.87,1.07-2.59c0.49-0.71,1.12-1.24,1.9-1.58
		c0.77-0.35,1.69-0.52,2.76-0.52c1.13,0,2.07,0.18,2.83,0.54c0.76,0.36,1.38,0.9,1.86,1.62c0.48,0.7,0.82,1.57,1.04,2.6
		S253.69,131.77,253.69,133.11z M249.74,133.11c0-1.98-0.16-3.36-0.48-4.16c-0.32-0.8-0.86-1.2-1.62-1.2c-0.75,0-1.29,0.4-1.61,1.2
		c-0.32,0.8-0.48,2.19-0.48,4.18c0,1.95,0.16,3.33,0.48,4.14c0.32,0.81,0.86,1.22,1.61,1.22c0.75,0,1.29-0.41,1.61-1.22
		C249.58,136.46,249.74,135.07,249.74,133.11z"/>
	<path class="st2" d="M267.37,141.11H257v-2.79h3.31v-8.45H257v-2.61c0.48,0,0.97-0.03,1.44-0.1s0.86-0.17,1.15-0.31
		c0.34-0.17,0.6-0.4,0.79-0.69c0.19-0.29,0.29-0.65,0.32-1.08h3.44v13.25h3.23V141.11z"/>
	<path class="st2" d="M282.24,141.11h-11.53v-2.61c0.98-0.79,1.85-1.53,2.63-2.23c0.78-0.7,1.46-1.37,2.05-2
		c0.77-0.82,1.32-1.55,1.67-2.17s0.52-1.26,0.52-1.92c0-0.74-0.22-1.32-0.65-1.71c-0.44-0.4-1.04-0.6-1.82-0.6
		c-0.4,0-0.78,0.05-1.13,0.15c-0.35,0.1-0.71,0.23-1.08,0.39c-0.36,0.17-0.66,0.33-0.92,0.5s-0.44,0.3-0.57,0.39h-0.31v-3.49
		c0.44-0.21,1.13-0.44,2.08-0.66s1.85-0.34,2.72-0.34c1.86,0,3.27,0.42,4.23,1.27c0.96,0.85,1.44,2.03,1.44,3.57
		c0,0.95-0.22,1.87-0.65,2.78c-0.44,0.91-1.16,1.88-2.17,2.92c-0.63,0.64-1.25,1.21-1.84,1.7c-0.6,0.5-1.03,0.85-1.3,1.06h6.65
		V141.11z"/>
</g>
<polyline class="st3" points="228.92,208.09 232.17,214.98 271.36,220.84 243.09,249.95 249.89,290.92 214.8,271.67 179.81,291.13 
	186.39,250.12 157.97,221.18 197.13,215.08 214.55,177.74 228.92,208.09 "/>
<line class="st4" x1="110.36" y1="181.19" x2="214.67" y2="181.19"/>
<line class="st4" x1="102.1" y1="174.41" x2="214.67" y2="174.41"/>
<line class="st4" x1="116.98" y1="187.98" x2="209.77" y2="187.98"/>
<line class="st4" x1="123.61" y1="194.77" x2="206.61" y2="194.77"/>
<line class="st4" x1="130.23" y1="201.56" x2="203.44" y2="201.56"/>
<line class="st4" x1="134.84" y1="208.76" x2="198.84" y2="208.76"/>
<line class="st4" x1="137.23" y1="215.6" x2="197.13" y2="215.08"/>
<line class="st4" x1="136.28" y1="221.42" x2="157.97" y2="221.18"/>
<line class="st4" x1="137.49" y1="226.99" x2="165.81" y2="226.99"/>
<line class="st4" x1="134.16" y1="233.43" x2="170.99" y2="233.43"/>
<line class="st4" x1="133.27" y1="239.87" x2="176.33" y2="239.87"/>
<line class="st4" x1="132.32" y1="246.68" x2="178.32" y2="245.99"/>
<line class="st4" x1="130.23" y1="252.84" x2="169.89" y2="252.84"/>
<line class="st4" x1="130.15" y1="259" x2="158.76" y2="259"/>
<line class="st4" x1="129.15" y1="265.15" x2="147.62" y2="265.15"/>
<g>
</g>
<g>
</g>
<g>
</g>
<g>
</g>
<g>
</g>
<g>
</g>
</svg>
